<svg width="124" height="122" viewBox="0 0 124 122" fill="none" xmlns="http://www.w3.org/2000/svg" xmlns:xlink="http://www.w3.org/1999/xlink">
<path d="M121.06,60.35C121.06,93.162 94.461,119.761 61.649,119.761L61.649,121.641C95.499,121.641 122.94,94.2 122.94,60.35L121.06,60.35ZM61.649,119.761C28.838,119.761 2.239,93.162 2.239,60.35L0.359,60.35C0.359,94.2 27.8,121.641 61.649,121.641L61.649,119.761ZM2.239,60.35C2.239,27.539 28.838,0.94 61.649,0.94L61.649,-0.94C27.8,-0.94 0.359,26.501 0.359,60.35L2.239,60.35ZM61.649,0.94C94.461,0.94 121.06,27.539 121.06,60.35L122.94,60.35C122.94,26.501 95.499,-0.94 61.649,-0.94L61.649,0.94Z" fill="#FFFFFF" fill-opacity="0.16"/>
<path d="M82.867,60.347L82.867,73.576C82.891,75.242 82.383,76.872 81.419,78.23C80.454,79.588 79.082,80.604 77.502,81.13C76.68,81.425 75.813,81.574 74.94,81.573L48.429,81.573C47.381,81.585 46.341,81.389 45.37,80.996C44.398,80.602 43.515,80.02 42.771,79.282C42.027,78.543 41.438,77.665 41.037,76.696C40.636,75.728 40.432,74.69 40.436,73.642L40.436,47.061C40.431,45.206 41.081,43.408 42.27,41.984C43.46,40.56 45.113,39.601 46.94,39.275C47.498,39.167 48.065,39.116 48.633,39.122L74.688,39.122C76.495,39.091 78.261,39.67 79.699,40.764C81.138,41.859 82.166,43.406 82.619,45.156C82.789,45.893 82.868,46.648 82.857,47.404C82.863,51.719 82.867,56.033 82.867,60.347ZM63.333,57.938L63.333,55.932C63.333,55.519 63.238,55.381 62.802,55.385C60.923,55.407 59.05,55.407 57.181,55.385C56.748,55.385 56.633,55.517 56.633,55.936C56.656,62.179 56.667,68.424 56.667,74.671C56.667,75.045 56.786,75.146 57.143,75.146L62.841,75.146C63.287,75.146 63.373,74.994 63.369,74.591L63.369,68.742C63.369,66.958 63.369,65.183 63.412,63.407C63.428,62.931 63.541,62.464 63.746,62.035C63.951,61.606 64.242,61.224 64.602,60.912C64.967,60.542 65.423,60.275 65.925,60.14C66.427,60.004 66.955,60.004 67.457,60.14C67.959,60.275 68.415,60.542 68.78,60.912C69.145,61.283 69.405,61.743 69.533,62.247C69.735,63.037 69.824,63.851 69.799,64.666C69.799,67.991 69.799,71.29 69.799,74.601C69.799,75.029 69.918,75.148 70.34,75.143C72.154,75.143 73.974,75.115 75.79,75.143C76.298,75.143 76.465,75.037 76.461,74.496C76.433,71.24 76.461,67.987 76.461,64.731C76.486,63.671 76.435,62.611 76.308,61.559C76.218,59.983 75.591,58.485 74.532,57.315C73.473,56.145 72.046,55.372 70.487,55.125C69.243,54.827 67.938,54.908 66.741,55.36C65.544,55.811 64.51,56.611 63.773,57.657C63.735,57.741 63.674,57.812 63.596,57.861C63.519,57.911 63.429,57.937 63.337,57.936L63.333,57.938ZM53.554,65.274L53.554,55.962C53.554,55.519 53.435,55.383 52.983,55.387C51.148,55.409 49.314,55.409 47.481,55.387C47.063,55.387 46.93,55.502 46.93,55.928C46.952,62.152 46.964,68.373 46.964,74.591C46.964,75.01 47.082,75.152 47.511,75.146C49.345,75.124 51.179,75.124 53.013,75.146C53.489,75.146 53.578,75.004 53.574,74.568C53.54,71.47 53.55,68.368 53.55,65.265L53.554,65.274ZM46.537,49.508C46.534,49.964 46.626,50.416 46.805,50.836C46.985,51.256 47.25,51.633 47.583,51.946C47.916,52.258 48.31,52.498 48.74,52.651C49.17,52.804 49.627,52.867 50.082,52.835C50.543,52.868 51.005,52.808 51.441,52.656C51.877,52.505 52.277,52.266 52.618,51.955C52.959,51.643 53.232,51.266 53.422,50.845C53.611,50.424 53.713,49.969 53.721,49.508C53.724,49.047 53.631,48.591 53.448,48.168C53.265,47.746 52.996,47.366 52.658,47.053C52.32,46.74 51.92,46.502 51.485,46.352C51.049,46.203 50.587,46.146 50.128,46.185C49.67,46.152 49.211,46.213 48.778,46.365C48.345,46.516 47.948,46.755 47.611,47.067C47.275,47.379 47.006,47.756 46.821,48.176C46.636,48.596 46.54,49.049 46.537,49.508L46.537,49.508Z" fill="#FFFFFF"/>
</svg>
