<svg width="88" height="88" viewBox="0 0 88 88" fill="none" xmlns="http://www.w3.org/2000/svg" xmlns:xlink="http://www.w3.org/1999/xlink">
<path d="M84.966,42.671C84.966,65.87 66.16,84.677 42.96,84.677L42.96,86.006C66.894,86.006 86.296,66.604 86.296,42.671L84.966,42.671ZM42.96,84.677C19.761,84.677 0.954,65.87 0.954,42.671L-0.375,42.671C-0.375,66.604 19.027,86.006 42.96,86.006L42.96,84.677ZM0.954,42.671C0.954,19.471 19.761,0.665 42.96,0.665L42.96,-0.665C19.027,-0.665 -0.375,18.737 -0.375,42.671L0.954,42.671ZM42.96,0.665C66.16,0.665 84.966,19.471 84.966,42.671L86.296,42.671C86.296,18.737 66.894,-0.665 42.96,-0.665L42.96,0.665Z" fill="#FFFFFF" fill-opacity="0.16"/>
<path d="M57.962,42.668L57.962,52.022C57.979,53.2 57.62,54.352 56.938,55.312C56.256,56.273 55.286,56.991 54.168,57.363C53.587,57.571 52.974,57.677 52.357,57.676L33.612,57.676C32.871,57.685 32.136,57.546 31.449,57.268C30.763,56.99 30.138,56.578 29.612,56.056C29.086,55.534 28.669,54.912 28.386,54.228C28.102,53.543 27.958,52.809 27.961,52.068L27.961,33.274C27.958,31.962 28.417,30.691 29.258,29.684C30.099,28.677 31.268,27.999 32.56,27.769C32.954,27.693 33.355,27.657 33.757,27.661L52.179,27.661C53.457,27.639 54.705,28.048 55.722,28.822C56.739,29.596 57.467,30.69 57.787,31.927C57.907,32.448 57.963,32.982 57.955,33.517C57.959,36.567 57.962,39.618 57.962,42.668ZM44.15,40.965L44.15,39.546C44.15,39.255 44.083,39.157 43.775,39.159C42.447,39.175 41.122,39.175 39.8,39.159C39.495,39.159 39.413,39.253 39.413,39.549C39.429,43.963 39.437,48.379 39.437,52.796C39.437,53.061 39.521,53.132 39.774,53.132L43.803,53.132C44.118,53.132 44.178,53.024 44.176,52.74L44.176,48.604C44.176,47.342 44.176,46.087 44.206,44.831C44.217,44.495 44.298,44.165 44.442,43.862C44.587,43.558 44.793,43.288 45.048,43.068C45.305,42.806 45.628,42.617 45.983,42.521C46.338,42.425 46.712,42.425 47.066,42.521C47.421,42.617 47.744,42.806 48.002,43.068C48.26,43.33 48.443,43.655 48.534,44.011C48.677,44.57 48.74,45.145 48.722,45.722C48.722,48.073 48.722,50.405 48.722,52.747C48.722,53.049 48.806,53.133 49.105,53.129C50.387,53.129 51.674,53.11 52.958,53.129C53.317,53.129 53.435,53.055 53.432,52.672C53.413,50.37 53.432,48.07 53.432,45.768C53.45,45.019 53.414,44.269 53.324,43.525C53.261,42.411 52.818,41.352 52.069,40.524C51.32,39.697 50.311,39.15 49.208,38.976C48.329,38.765 47.406,38.823 46.56,39.142C45.714,39.461 44.983,40.027 44.462,40.766C44.435,40.825 44.391,40.875 44.337,40.91C44.282,40.945 44.218,40.964 44.153,40.964L44.15,40.965ZM37.236,46.152L37.236,39.567C37.236,39.255 37.152,39.158 36.833,39.161C35.535,39.177 34.239,39.177 32.942,39.161C32.646,39.161 32.553,39.242 32.553,39.543C32.568,43.944 32.576,48.343 32.576,52.74C32.576,53.035 32.66,53.136 32.963,53.132C34.26,53.116 35.557,53.116 36.854,53.132C37.19,53.132 37.253,53.031 37.25,52.723C37.226,50.533 37.233,48.339 37.233,46.145L37.236,46.152ZM32.275,35.004C32.273,35.327 32.337,35.647 32.465,35.943C32.592,36.24 32.779,36.507 33.014,36.728C33.25,36.949 33.528,37.119 33.832,37.227C34.136,37.335 34.46,37.379 34.782,37.356C35.107,37.38 35.434,37.337 35.742,37.23C36.05,37.123 36.334,36.955 36.574,36.734C36.815,36.514 37.009,36.247 37.143,35.95C37.277,35.652 37.349,35.33 37.354,35.004C37.356,34.678 37.291,34.356 37.161,34.057C37.032,33.758 36.842,33.49 36.603,33.269C36.364,33.047 36.081,32.879 35.773,32.773C35.465,32.667 35.138,32.627 34.814,32.655C34.49,32.631 34.165,32.674 33.859,32.782C33.553,32.889 33.272,33.058 33.034,33.278C32.796,33.499 32.606,33.765 32.476,34.062C32.345,34.359 32.277,34.68 32.275,35.004L32.275,35.004Z" fill="#FFFFFF"/>
</svg>
