<svg width="122" height="122" viewBox="0 0 122 122" fill="none" xmlns="http://www.w3.org/2000/svg" xmlns:xlink="http://www.w3.org/1999/xlink">
<path d="M119.761,60.35C119.761,93.162 93.162,119.761 60.35,119.761L60.35,121.641C94.2,121.641 121.641,94.2 121.641,60.35L119.761,60.35ZM60.35,119.761C27.539,119.761 0.94,93.162 0.94,60.35L-0.94,60.35C-0.94,94.2 26.501,121.641 60.35,121.641L60.35,119.761ZM0.94,60.35C0.94,27.539 27.539,0.94 60.35,0.94L60.35,-0.94C26.501,-0.94 -0.94,26.501 -0.94,60.35L0.94,60.35ZM60.35,0.94C93.162,0.94 119.761,27.539 119.761,60.35L121.641,60.35C121.641,26.501 94.2,-0.94 60.35,-0.94L60.35,0.94Z" fill="#FFFFFF" fill-opacity="0.16"/>
<path d="M36.759,74.586C41.717,75.152 46.701,73.763 50.652,70.714C48.081,70.524 45.68,69.359 43.942,67.456C42.995,66.438 42.293,65.218 41.89,63.887C43.235,64.076 44.603,64.025 45.931,63.736C43.791,63.203 41.894,61.964 40.545,60.22C39.196,58.475 38.475,56.327 38.497,54.122C39.815,54.757 41.239,55.139 42.697,55.25C40.705,53.825 39.31,51.715 38.777,49.324C38.252,46.93 38.642,44.427 39.871,42.307C42.309,45.287 45.339,47.728 48.77,49.474C52.201,51.22 55.958,52.234 59.802,52.451C59.729,51.913 59.639,51.436 59.604,50.954C59.432,48.419 60.257,45.918 61.902,43.982C63.546,42.046 65.882,40.828 68.411,40.588C69.799,40.44 71.204,40.601 72.523,41.059C73.842,41.517 75.043,42.262 76.041,43.239C76.161,43.366 76.314,43.456 76.483,43.498C76.653,43.541 76.83,43.535 76.996,43.481C78.747,43.071 80.434,42.424 82.011,41.558C82.143,41.484 82.282,41.415 82.419,41.359L82.582,41.359C81.899,43.446 80.558,45.254 78.761,46.514C80.504,46.274 82.216,45.848 83.868,45.242C83.531,45.755 83.158,46.246 82.754,46.709C81.673,47.805 80.551,48.86 79.419,49.911C79.306,49.992 79.216,50.101 79.155,50.226C79.095,50.351 79.067,50.49 79.074,50.629C79.22,55.817 77.898,60.941 75.261,65.412C72.932,69.593 69.511,73.063 65.364,75.452C61.778,77.491 57.771,78.678 53.653,78.92C50.169,79.18 46.667,78.788 43.325,77.766C41.103,77.083 38.979,76.113 37.008,74.879C36.923,74.828 36.85,74.762 36.766,74.707L36.759,74.586Z" fill="#FFFFFF"/>
</svg>
