<svg width="88" height="88" viewBox="0 0 88 88" fill="none" xmlns="http://www.w3.org/2000/svg" xmlns:xlink="http://www.w3.org/1999/xlink">
<path d="M84.677,42.671C84.677,65.87 65.87,84.677 42.671,84.677L42.671,86.006C66.604,86.006 86.006,66.604 86.006,42.671L84.677,42.671ZM42.671,84.677C19.471,84.677 0.665,65.87 0.665,42.671L-0.665,42.671C-0.665,66.604 18.737,86.006 42.671,86.006L42.671,84.677ZM0.665,42.671C0.665,19.471 19.471,0.665 42.671,0.665L42.671,-0.665C18.737,-0.665 -0.665,18.737 -0.665,42.671L0.665,42.671ZM42.671,0.665C65.87,0.665 84.677,19.471 84.677,42.671L86.006,42.671C86.006,18.737 66.604,-0.665 42.671,-0.665L42.671,0.665Z" fill="#FFFFFF" fill-opacity="0.16"/>
<path d="M25.99,52.736C29.496,53.137 33.02,52.154 35.813,49.998C33.996,49.865 32.298,49.04 31.069,47.695C30.399,46.975 29.903,46.112 29.618,45.172C30.569,45.305 31.537,45.269 32.475,45.065C30.962,44.688 29.621,43.812 28.667,42.579C27.714,41.345 27.204,39.826 27.22,38.267C28.151,38.716 29.158,38.986 30.189,39.065C28.781,38.057 27.794,36.565 27.417,34.875C27.046,33.182 27.322,31.412 28.191,29.913C29.914,32.02 32.057,33.746 34.483,34.981C36.909,36.215 39.565,36.932 42.283,37.085C42.231,36.706 42.168,36.368 42.143,36.027C42.021,34.235 42.604,32.466 43.767,31.097C44.93,29.729 46.582,28.868 48.37,28.698C49.352,28.593 50.344,28.707 51.277,29.031C52.21,29.355 53.059,29.881 53.764,30.572C53.849,30.662 53.958,30.725 54.077,30.756C54.197,30.786 54.323,30.782 54.44,30.743C55.678,30.454 56.871,29.996 57.985,29.383C58.079,29.332 58.178,29.283 58.274,29.243L58.389,29.243C57.907,30.718 56.959,31.997 55.688,32.888C56.92,32.718 58.131,32.417 59.299,31.988C59.06,32.351 58.797,32.698 58.511,33.026C57.747,33.801 56.954,34.547 56.153,35.29C56.073,35.347 56.009,35.424 55.967,35.512C55.924,35.601 55.904,35.699 55.909,35.797C56.012,39.466 55.078,43.089 53.213,46.25C51.566,49.206 49.147,51.66 46.215,53.349C43.68,54.79 40.847,55.629 37.936,55.801C35.472,55.984 32.996,55.708 30.633,54.985C29.062,54.502 27.56,53.816 26.167,52.944C26.106,52.907 26.055,52.861 25.996,52.822L25.99,52.736Z" fill="#FFFFFF"/>
</svg>
