<svg width="82" height="82" viewBox="0 0 82 82" fill="none" xmlns="http://www.w3.org/2000/svg" xmlns:xlink="http://www.w3.org/1999/xlink">
<g opacity="0.7">
<rect  x="0" y="0.797" width="81.148" height="81.148" rx="5.502" fill="#FFFFFF"/>
</g>
<path d="M32,37.95C32,34.4 35.153,31.49 39,31.49C42.847,31.49 46,34.4 46,37.95L46,60.95C46,61.137 45.835,61.289 45.633,61.289L32.367,61.289C32.165,61.289 32,61.137 32,60.95L32,37.95Z" fill="#D93E3A"/>
<path d="M34.715,20.927C37.081,18.743 40.919,18.743 43.285,20.927C45.651,23.11 45.651,26.651 43.285,28.835C40.919,31.019 37.081,31.019 34.715,28.835C32.348,26.652 32.348,23.111 34.715,20.927Z" fill="#D93E3A"/>
</svg>
