<svg width="118" height="118" viewBox="0 0 118 118" fill="none" xmlns="http://www.w3.org/2000/svg" xmlns:xlink="http://www.w3.org/1999/xlink">
<rect  x="0" y="0" width="118" height="118" rx="8" fill="#FFFFFF"/>
<path d="M85.332,39.352C82.213,36.232 77.153,36.232 74.034,39.352C70.914,42.472 70.914,47.53 74.034,50.65C77.153,53.77 82.213,53.77 85.332,50.65C88.452,47.53 88.451,42.471 85.332,39.352ZM41.965,39.352C38.846,36.232 33.787,36.232 30.667,39.352C27.547,42.472 27.547,47.53 30.667,50.65C33.787,53.77 38.846,53.77 41.965,50.65C45.085,47.53 45.085,42.471 41.965,39.352ZM79.683,54.192C75.113,54.192 71.367,57.94 71.367,62.509L71.367,87.148C71.367,87.415 71.585,87.632 71.851,87.632L87.517,87.632C87.783,87.632 88,87.415 88,87.148L88,62.509C88,57.939 84.253,54.192 79.683,54.192ZM36.317,54.192C31.747,54.192 28,57.94 28,62.509L28,87.148C28,87.415 28.217,87.632 28.484,87.632L44.149,87.632C44.416,87.632 44.633,87.415 44.633,87.148L44.633,62.509C44.633,57.939 40.887,54.192 36.317,54.192Z" clip-rule="evenodd" fill-rule="evenodd" fill="#E297DC"/>
<path d="M48.771,54.659C48.771,49.588 52.929,45.43 58,45.43C63.071,45.43 67.229,49.587 67.229,54.659L67.229,87.516C67.229,87.783 67.011,88 66.745,88L49.255,88C48.989,88 48.771,87.783 48.771,87.516L48.771,54.659Z" fill="#CF67CA"/>
<path d="M52.351,30.34C55.47,27.22 60.529,27.22 63.649,30.34C66.768,33.459 66.768,38.518 63.649,41.638C60.529,44.758 55.471,44.757 52.351,41.638C49.231,38.518 49.231,33.46 52.351,30.34Z" fill="#CF67CA"/>
</svg>
