<svg width="118" height="118" viewBox="0 0 118 118" fill="none" xmlns="http://www.w3.org/2000/svg" xmlns:xlink="http://www.w3.org/1999/xlink">
<rect  x="0" y="0" width="118" height="118" rx="8" fill="#FFFFFF"/>
<path d="M47.962,83.925C61.196,83.925 71.925,73.196 71.925,59.962C71.925,46.728 61.196,36 47.962,36C34.728,36 24,46.728 24,59.962C24,73.196 34.728,83.925 47.962,83.925ZM47.962,74.145C55.794,74.145 62.144,67.795 62.144,59.963C62.144,52.131 55.794,45.781 47.962,45.781C40.13,45.781 33.78,52.131 33.78,59.963C33.78,67.795 40.13,74.145 47.962,74.145Z" clip-rule="evenodd" fill-rule="evenodd" fill="#CF67CA"/>
<path d="M72.038,83.925C85.272,83.925 96,73.196 96,59.962C96,46.728 85.272,36 72.038,36C58.804,36 48.075,46.728 48.075,59.962C48.075,73.196 58.804,83.925 72.038,83.925ZM72.037,74.145C79.87,74.145 86.219,67.795 86.219,59.963C86.219,52.131 79.87,45.781 72.037,45.781C64.205,45.781 57.855,52.131 57.855,59.963C57.855,67.795 64.205,74.145 72.037,74.145Z" clip-rule="evenodd" fill-rule="evenodd" fill="#E297DC"/>
</svg>
