<svg width="56" height="36" viewBox="0 0 56 36" fill="none" xmlns="http://www.w3.org/2000/svg" xmlns:xlink="http://www.w3.org/1999/xlink">
<path d="M18.455,35.214C28.375,35.214 36.417,27.172 36.417,17.251C36.417,7.331 28.375,-0.711 18.455,-0.711C8.534,-0.711 0.492,7.331 0.492,17.251C0.492,27.172 8.534,35.214 18.455,35.214ZM18.455,27.883C24.326,27.883 29.086,23.123 29.086,17.252C29.086,11.381 24.326,6.621 18.455,6.621C12.584,6.621 7.824,11.381 7.824,17.252C7.824,23.123 12.584,27.883 18.455,27.883Z" clip-rule="evenodd" fill-rule="evenodd" fill="#D93E3A"/>
<path d="M36.501,35.214C46.422,35.214 54.464,27.172 54.464,17.251C54.464,7.331 46.422,-0.711 36.501,-0.711C26.581,-0.711 18.539,7.331 18.539,17.251C18.539,27.172 26.581,35.214 36.501,35.214ZM36.5,27.883C42.372,27.883 47.131,23.123 47.131,17.252C47.131,11.381 42.372,6.621 36.5,6.621C30.629,6.621 25.87,11.381 25.87,17.252C25.87,23.123 30.629,27.883 36.5,27.883Z" clip-rule="evenodd" fill-rule="evenodd" fill="#16978F"/>
</svg>
