<svg width="62" height="62" viewBox="0 0 62 62" fill="none" xmlns="http://www.w3.org/2000/svg" xmlns:xlink="http://www.w3.org/1999/xlink">
<path d="M38.304,0L23.94,0L23.94,8.782C22.714,9.175 21.533,9.667 20.405,10.247L14.157,3.999L4,14.156L10.247,20.403C9.667,21.532 9.175,22.714 8.781,23.94L0,23.94L0,38.304L8.78,38.304C9.179,39.546 9.679,40.744 10.27,41.886L4,48.156L14.157,58.313L20.449,52.021C21.564,52.592 22.73,53.076 23.94,53.464L23.94,61.286L38.304,61.286L38.304,53.464C40.004,52.918 41.62,52.183 43.127,51.284L50.157,58.313L60.314,48.156L52.641,40.484C52.95,39.774 53.225,39.047 53.463,38.303L61.286,38.303L61.286,23.939L53.462,23.939C53.074,22.731 52.59,21.564 52.02,20.45L58.314,14.156L48.157,3.999L41.885,10.271C40.743,9.68 39.546,9.181 38.304,8.782L38.304,0ZM31.122,45.008C38.79,45.008 45.007,38.792 45.007,31.123C45.007,23.455 38.79,17.238 31.122,17.238C23.453,17.238 17.237,23.455 17.237,31.123C17.237,38.792 23.453,45.008 31.122,45.008Z" clip-rule="evenodd" fill-rule="evenodd" fill="#CF67CA"/>
</svg>
