<svg width="42" height="42" viewBox="0 0 42 42" fill="none" xmlns="http://www.w3.org/2000/svg" xmlns:xlink="http://www.w3.org/1999/xlink">
<path d="M25.828,0.509L16.333,0.509L16.333,6.314C15.523,6.574 14.742,6.899 13.996,7.282L9.866,3.152L3.153,9.866L7.282,13.996C6.898,14.742 6.573,15.523 6.313,16.333L0.509,16.333L0.509,25.828L6.312,25.828C6.576,26.649 6.906,27.441 7.297,28.196L3.153,32.341L9.866,39.054L14.025,34.896C14.762,35.273 15.533,35.593 16.333,35.849L16.333,41.019L25.828,41.019L25.828,35.85C26.952,35.488 28.02,35.002 29.017,34.408L33.663,39.054L40.377,32.341L35.305,27.269C35.509,26.8 35.691,26.319 35.849,25.828L41.019,25.828L41.019,16.333L35.848,16.333C35.591,15.534 35.271,14.763 34.894,14.026L39.055,9.866L32.341,3.152L28.195,7.298C27.44,6.907 26.649,6.577 25.828,6.313L25.828,0.509ZM21.08,30.26C26.149,30.26 30.259,26.15 30.259,21.081C30.259,16.012 26.149,11.903 21.08,11.903C16.011,11.903 11.902,16.012 11.902,21.081C11.902,26.15 16.011,30.26 21.08,30.26Z" clip-rule="evenodd" fill-rule="evenodd" fill="#CF67CA"/>
</svg>
