<svg width="46" height="46" viewBox="0 0 46 46" fill="none" xmlns="http://www.w3.org/2000/svg" xmlns:xlink="http://www.w3.org/1999/xlink">
<path d="M46,14.364L46,2.545C46,1.091 44.905,0 43.444,0L31.579,0C29.389,0 27.198,0.727 25.373,1.818C24.46,2.364 23.73,3.091 23,4C20.992,1.636 17.889,0 14.421,0L2.556,0C1.095,0 0,1.091 0,2.545L0,14.364C0,17.818 1.643,20.727 4.016,22.909C1.643,24.909 0,28 0,31.455L0,43.273C0,44.727 1.095,45.818 2.556,45.818L14.421,45.818C15.881,45.818 16.976,44.727 16.976,43.273C16.976,41.818 15.881,40.727 14.421,40.727L5.111,40.727L5.111,31.455C5.111,28.182 7.667,25.636 10.952,25.636L20.262,25.636L20.262,34.909C20.262,41.091 25.19,46 31.397,46L43.262,46C44.722,46 45.817,44.909 45.817,43.455L45.817,31.636C45.817,28.182 44.175,25.273 41.802,23.091C44.54,20.909 46,17.818 46,14.364ZM11.135,20.364C7.849,20.364 5.294,17.818 5.294,14.545L5.294,5.091L14.603,5.091C17.889,5.091 20.444,7.636 20.444,10.909L20.444,20.182L11.135,20.182L11.135,20.364ZM40.889,31.455L40.889,40.727L31.579,40.727C28.294,40.727 25.738,38.182 25.738,34.909L25.738,25.636L35.048,25.636C38.151,25.455 40.889,28.182 40.889,31.455ZM25.556,20.364L25.556,11.091C25.556,9.091 26.468,7.273 28.111,6.182C29.024,5.455 30.302,5.091 31.397,5.091L40.706,5.091L40.706,14.364C40.706,17.636 38.151,20.182 34.865,20.182L25.556,20.182L25.556,20.364Z" fill="#000000"/>
</svg>
